<svg data-v-423bf9ae="" xmlns="http://www.w3.org/2000/svg" viewBox="0 0 226.77551139567802 60" class="font"><!----><!----><defs data-v-423bf9ae=""><linearGradient data-v-423bf9ae="" gradientTransform="rotate(25)" id="83061931-a8ee-446f-9411-18575971cd6c" x1="0%" y1="0%" x2="100%" y2="0%"><stop data-v-423bf9ae="" offset="0%" style="stop-color: rgb(214, 65, 63); stop-opacity: 1;"></stop><stop data-v-423bf9ae="" offset="100%" style="stop-color: rgb(66, 133, 211); stop-opacity: 1;"></stop></linearGradient></defs><g data-v-423bf9ae="" id="e7ddf80a-7629-4fa2-bab1-ed897fbc5609" fill="url(#83061931-a8ee-446f-9411-18575971cd6c)" transform="matrix(6.1224488604322,0,0,6.1224488604322,-0.0000031648800273842426,-4.285714427340487)"><path d="M0.98 9.51L3.53 9.51L3.53 10.50L0 10.50L0 9.51L0 0.70L0.98 0.70L0.98 9.51ZM7.80 10.50L6.55 2.67L5.84 7.20L6.55 7.20L6.55 8.18L5.68 8.18L5.31 10.50L4.31 10.50L4.69 8.18L4.31 8.18L4.31 7.20L4.84 7.20L5.88 0.70L7.22 0.70L8.79 10.50L7.80 10.50ZM9.34 10.50L9.34 4.62L10.32 4.62L10.32 10.50L9.34 10.50ZM9.34 0.70L12.17 0.70L12.17 0.70Q12.61 0.70 12.94 1.03L12.94 1.03L12.94 1.03Q13.27 1.36 13.27 1.82L13.27 1.82L13.27 4.48L13.27 4.48Q13.27 4.94 12.94 5.27L12.94 5.27L12.94 5.27Q12.61 5.60 12.17 5.60L12.17 5.60L11.82 5.60L13.27 10.50L12.22 10.50L10.53 4.62L12.17 4.62L12.17 4.62Q12.29 4.62 12.29 4.48L12.29 4.48L12.29 1.82L12.29 1.82Q12.29 1.68 12.17 1.68L12.17 1.68L10.32 1.68L10.32 4.62L9.34 1.68L9.34 0.70ZM17.53 10.50L16.28 2.67L15.57 7.20L16.28 7.20L16.28 8.18L15.41 8.18L15.04 10.50L14.04 10.50L14.42 8.18L14.04 8.18L14.04 7.20L14.57 7.20L15.61 0.70L16.95 0.70L18.52 10.50L17.53 10.50ZM22.55 0.70L23.55 0.70L21.98 10.50L20.64 10.50L19.07 0.70L20.06 0.70L21.31 8.54L22.55 0.70ZM27.92 1.68L25.37 1.68L25.37 4.62L27.41 4.62L27.41 5.60L25.37 5.60L25.37 9.52L27.92 9.52L27.92 10.50L24.39 10.50L24.39 4.62L25.37 4.62L24.39 1.68L24.39 0.70L27.92 0.70L27.92 1.68ZM29.81 9.51L32.35 9.51L32.35 10.50L28.83 10.50L28.83 9.51L28.83 0.70L29.81 0.70L29.81 9.51ZM37.04 2.86L36.06 2.86L36.06 1.81L36.06 1.81Q36.06 1.67 35.92 1.67L35.92 1.67L34.40 1.67L34.40 1.67Q34.26 1.67 34.26 1.81L34.26 1.81L34.26 4.47L34.26 4.47Q34.26 4.56 34.34 4.59L34.34 4.59L35.92 4.59L35.92 4.59Q36.40 4.59 36.72 4.92L36.72 4.92L36.72 4.92Q37.04 5.25 37.04 5.71L37.04 5.71L37.04 9.39L37.04 9.39Q37.04 9.81 36.78 10.12L36.78 10.12L36.78 10.12Q36.51 10.43 36.11 10.50L36.11 10.50L34.22 10.50L34.22 10.50Q33.81 10.43 33.54 10.12L33.54 10.12L33.54 10.12Q33.28 9.81 33.28 9.39L33.28 9.39L33.28 8.34L34.26 8.34L34.26 9.39L34.26 9.39Q34.26 9.53 34.40 9.53L34.40 9.53L35.92 9.53L35.92 9.53Q36.06 9.53 36.06 9.39L36.06 9.39L36.06 5.71L36.06 5.71Q36.06 5.61 35.98 5.59L35.98 5.59L34.40 5.59L34.40 5.59Q33.94 5.59 33.61 5.26L33.61 5.26L33.61 5.26Q33.28 4.93 33.28 4.47L33.28 4.47L33.28 1.81L33.28 1.81Q33.28 1.39 33.54 1.08L33.54 1.08L33.54 1.08Q33.81 0.77 34.22 0.70L34.22 0.70L36.11 0.70L36.11 0.70Q36.51 0.77 36.78 1.08L36.78 1.08L36.78 1.08Q37.04 1.39 37.04 1.81L37.04 1.81L37.04 2.86Z"></path></g><!----><!----></svg>